<svg width="17" height="16" viewBox="0 0 17 16" fill="none" xmlns="http://www.w3.org/2000/svg">
<path d="M2.86603 14.8508C2.78823 15.2942 3.2258 15.6413 3.61224 15.4427L8.00146 13.1868L12.3907 15.4427C12.7771 15.6413 13.2147 15.2942 13.1369 14.8508L12.3072 10.1213L15.8295 6.76462C16.1587 6.45092 15.9883 5.87737 15.5473 5.81472L10.6488 5.11885L8.4647 0.792305C8.26795 0.402565 7.73498 0.402565 7.53823 0.792305L5.35411 5.11885L0.455637 5.81472C0.0146475 5.87737 -0.155753 6.45092 0.173428 6.76462L3.69576 10.1213L2.86603 14.8508ZM7.77063 12.0826L4.08488 13.977L4.77914 10.0197C4.81187 9.83316 4.75033 9.64214 4.61639 9.5145L1.70955 6.7444L5.76186 6.16873C5.92938 6.14494 6.07565 6.03795 6.15467 5.88141L8.00146 2.22308L9.84826 5.88141C9.92728 6.03795 10.0736 6.14494 10.2411 6.16873L14.2934 6.7444L11.3865 9.5145C11.2526 9.64214 11.1911 9.83316 11.2238 10.0197L11.918 13.977L8.23229 12.0826C8.0867 12.0078 7.91623 12.0078 7.77063 12.0826Z" fill="black"/>
<path d="M10.5 6V13.5" stroke="black"/>
<path d="M9.60892 10.8995C9.60892 9.60693 9.73763 8.32561 9.73763 7.03812C9.73763 6.68946 9.69496 6.39407 9.62322 6.05131C9.54726 5.68839 9.29264 5.40447 9.12981 5.07881C8.80162 4.42242 8.45777 3.80274 8.20736 3.12665C8.16438 3.0106 8.12471 2.76327 7.99284 2.70832C7.7515 2.60776 7.33688 3.39267 7.22771 3.56284C6.98977 3.93374 6.95913 4.45986 6.90235 4.88574C6.79878 5.66246 6.45809 5.91224 5.7475 6.1121C5.24663 6.25297 4.67499 6.39455 4.14572 6.39455C3.98731 6.39455 3.89369 6.5175 3.73813 6.52327C3.59318 6.52863 3.44699 6.52327 3.30193 6.52327C3.03279 6.52327 2.79 6.68272 2.52964 6.71991C2.24731 6.76025 2.38856 7.22404 2.29367 7.22404C2.22962 7.22404 1.85091 6.99873 1.86462 6.98807C1.9709 6.90541 2.20777 7.10731 2.27579 7.16684C2.66274 7.50541 3.24348 7.65185 3.62371 8.03208C3.8808 8.28917 4.08693 8.58181 4.33164 8.84012C4.57136 9.09316 4.70893 9.25492 4.71778 9.62671C4.7336 10.2908 4.71778 10.9575 4.71778 11.6218C4.71778 11.8609 4.71752 12.1676 4.63912 12.3941C4.52794 12.7152 4.28996 12.9914 4.21723 13.3308C4.08235 13.9602 5.38581 13.031 5.55442 12.9733C6.25084 12.735 6.7836 12.4468 7.38145 12.0329C7.59234 11.8869 8.17258 11.7683 8.41831 11.9007C8.63922 12.0196 8.8831 12.2006 9.12624 12.2546C9.37335 12.3095 9.55386 12.4055 9.70903 12.605C9.8474 12.7829 9.73432 12.0848 9.72333 12.0079C9.68993 11.7741 9.70339 11.508 9.63752 11.2821C9.41584 10.5221 9.35149 9.66651 9.35149 8.87587C9.35149 7.81641 8.96535 6.79229 8.96535 5.75098" stroke="black" stroke-linecap="round"/>
<path d="M8.0644 3.6272C7.00464 3.6272 7.09905 5.40121 7.09905 6.10852C7.09905 6.78312 6.84567 7.55404 6.98464 8.218C7.01459 8.36113 7.24715 7.42219 7.25994 7.32773C7.35149 6.65164 7.53112 5.94661 7.54955 5.26473C7.55764 4.9654 7.45539 4.5134 7.5853 4.23501C7.614 4.17351 7.72832 3.84663 7.80698 4.02049C7.91969 4.26964 8.03267 4.55059 8.09301 4.8178C8.21836 5.37291 8.12876 6.01743 8.12876 6.58762C8.12876 7.09336 8.25555 7.56539 8.30753 8.06783C8.35763 8.55212 8.44981 9.1845 8.7044 9.60883C8.7986 9.76583 8.86953 10.0493 8.89747 10.2309C8.91256 10.329 8.98975 11.4242 8.83669 11.4645C8.38067 11.5845 8.19312 9.735 8.19312 9.49084C8.19312 8.76265 8.14091 8.0164 8.26105 7.29555C8.29342 7.10133 8.4247 6.93071 8.44697 6.74136C8.46913 6.55304 8.44697 6.35516 8.45055 6.16572C8.45642 5.85447 8.5149 5.55055 8.5149 5.23612" stroke="black" stroke-linecap="round"/>
<path d="M8.19308 5.62225C7.68824 6.14038 7.23106 6.95415 6.50907 7.13464C5.82134 7.30658 5.04163 7.10247 4.34596 7.10247C4.13699 7.10247 3.91526 7.0767 3.71311 7.13822C3.58359 7.17764 3.25164 7.36744 3.32339 7.25263C3.41994 7.09816 4.01978 7.05532 4.18149 7.0095C4.75177 6.84793 5.34312 6.86065 5.91198 6.73062C6.06052 6.69667 6.13279 6.69977 6.26952 6.61621C6.82669 6.27572 6.43008 6.88189 6.26952 7.18112C6.15231 7.39956 6.03976 7.58934 5.86192 7.76034C5.70484 7.91138 5.51102 7.86683 5.31131 7.9248C5.02792 8.00708 4.73683 7.99841 4.45679 8.09642C4.32294 8.14327 4.11835 8.15483 3.97412 8.1286C3.71395 8.0813 3.759 7.16584 4.26372 8.00704C4.79797 8.89745 5.18969 10.1088 5.29343 11.1462C5.30913 11.3032 5.31756 11.5042 5.28271 11.6575C5.23447 11.8698 5.05912 12.03 5.10394 12.2653C5.12568 12.3795 5.4624 12.0564 5.49723 12.0329C5.71152 11.8883 5.95726 11.8209 6.19801 11.7362C6.35507 11.6809 6.4731 11.6074 6.63421 11.5574C7.03488 11.4331 7.37574 11.4474 7.77118 11.2892C8.36256 11.0527 7.52294 9.94315 7.35644 9.67675C7.10887 9.28063 6.97029 8.70198 6.97029 8.23229C6.97029 7.93232 6.87191 7.32242 7.35286 7.65308C7.74715 7.92415 7.61386 8.67429 7.61386 9.06893C7.61386 9.4952 7.4727 9.73387 7.22057 10.07C7.02905 10.3254 6.53898 10.6421 6.19801 10.6421C6.02409 10.6421 5.73382 10.7001 5.62952 10.5241C5.4539 10.2278 5.49008 9.69922 5.49008 9.35854C5.49008 9.14479 5.37425 8.40204 5.69745 8.38961C6.36661 8.36387 6.13365 9.08977 6.13365 9.60524C6.13365 9.93773 6.29285 10.1729 6.64851 10.1916C6.88582 10.2041 7.01921 10.2693 7.03465 10.542C7.04458 10.7175 7.17711 11.055 7.08471 11.2213C6.90462 11.5455 6.29067 11.5431 5.97276 11.5431C5.30964 11.5431 6.56271 9.4336 6.66996 9.17619C6.77926 8.91387 6.74098 8.41742 6.70929 8.13218C6.7028 8.07376 6.49885 7.65512 6.45901 7.77464C6.32566 8.17469 6.39108 8.6778 6.39108 9.09396C6.39108 9.69213 6.90123 10.2726 7.24202 10.7351C7.54702 11.149 7.68331 11.6977 8.02861 12.0758C8.27333 12.3439 8.10406 11.9511 8.02861 11.8649C7.84442 11.6544 7.89003 11.4176 7.85699 11.157C7.79676 10.6818 7.62282 10.2246 7.61386 9.7411C7.60791 9.41958 7.61386 9.09735 7.61386 8.77575" stroke="black" stroke-linecap="round"/>
</svg>
