<svg width="17" height="16" viewBox="0 0 17 16" fill="none" xmlns="http://www.w3.org/2000/svg">
<path d="M2.86603 14.8508C2.78823 15.2942 3.2258 15.6413 3.61224 15.4427L8.00146 13.1868L12.3907 15.4427C12.7771 15.6413 13.2147 15.2942 13.1369 14.8508L12.3072 10.1213L15.8295 6.76462C16.1587 6.45092 15.9883 5.87737 15.5473 5.81472L10.6488 5.11885L8.4647 0.792305C8.26795 0.402565 7.73498 0.402565 7.53823 0.792305L5.35411 5.11885L0.455637 5.81472C0.0146475 5.87737 -0.155753 6.45092 0.173428 6.76462L3.69576 10.1213L2.86603 14.8508ZM7.77063 12.0826L4.08488 13.977L4.77914 10.0197C4.81187 9.83316 4.75033 9.64214 4.61639 9.5145L1.70955 6.7444L5.76186 6.16873C5.92938 6.14494 6.07565 6.03795 6.15467 5.88141L8.00146 2.22308L9.84826 5.88141C9.92728 6.03795 10.0736 6.14494 10.2411 6.16873L14.2934 6.7444L11.3865 9.5145C11.2526 9.64214 11.1911 9.83316 11.2238 10.0197L11.918 13.977L8.23229 12.0826C8.0867 12.0078 7.91623 12.0078 7.77063 12.0826Z" fill="black"/>
<path d="M5 6V14" stroke="black"/>
<path d="M3.88435 7.09865C3.88435 7.3529 3.91235 7.60059 3.93012 7.85383C3.94319 8.03999 3.96556 8.61982 3.90978 8.06996C3.88693 7.84472 3.87325 7.6386 4.0242 7.45463C4.09183 7.37221 4.19229 7.31889 4.23016 7.21561C4.29024 7.05177 4.38274 6.82449 4.29373 6.66131C4.14266 6.38436 4.20473 6.79318 4.20473 6.91558C4.20473 7.36723 4.18945 7.82043 4.22762 8.27083C4.25552 8.60013 4.32635 8.92419 4.34458 9.25231C4.34604 9.27864 4.38887 9.58625 4.34712 9.39978C4.21028 8.78854 4.12728 8.15785 4.08268 7.53345C4.07831 7.47227 4.11867 6.34728 4.04709 6.33076C3.79165 6.27181 3.35195 6.45641 3.10629 6.50875C2.91543 6.54941 2.71833 6.58201 2.53164 6.64097C2.28004 6.72042 2.16138 6.74846 2.21127 7.04779C2.25563 7.31398 2.37376 7.75003 2.68421 7.78517C2.97466 7.81806 3.40109 7.98211 3.60974 8.19709C3.72637 8.31725 3.56214 8.18781 3.51312 8.10555C3.36332 7.85416 3.2165 7.56207 3.16223 7.27155C3.16131 7.26662 3.13501 6.9784 3.10629 7.09865C3.04116 7.3714 3.05019 7.69722 3.08087 7.97333C3.11103 8.2448 3.25604 8.30996 3.47244 8.45644C3.74825 8.64315 4.023 8.83082 4.29627 9.02092" stroke="black" stroke-linecap="round"/>
<path d="M4.5709 11.3551C4.49332 11.8749 4.45255 12.4462 4.21493 12.9214C4.02459 13.3021 3.80551 13.6714 3.79284 14.1063C3.77745 14.6348 3.94861 14.0768 4.04711 13.8622C4.23126 13.4609 4.38666 13.1145 4.48954 12.6773C4.8499 11.1458 4.93705 9.58668 4.93705 8.01401" stroke="black" stroke-linecap="round"/>
</svg>
