<?xml version='1.0' encoding='utf-8'?>
<svg xmlns="http://www.w3.org/2000/svg" enable-background="new 0 0 48.4 47.55" version="1.1" viewBox="0 0 48.4 47.55">
<g clip-rule="evenodd" fill-rule="evenodd">
		<path d="m25.95 16.8l-2.925 3.575-7.375 8.725-0.1-0.05c-0.1 0.066-0.183 0.134-0.25 0.2h-0.2c-1.1 0.467-1.883 0.75-2.35 0.85l1.2-0.649c0.9-0.601 1.617-1.184 2.15-1.75 0.566-0.634 2.417-2.8 5.55-6.5 2.833-3.534 4.617-5.784 5.35-6.75 0.434-0.5 0.833-0.967 1.2-1.4 0.2-0.233 0.333-0.533 0.399-0.9 0.067-0.367 0.051-1.117-0.05-2.25-0.332-0.901-0.549-1.484-0.649-1.751 0.133-0.2 0.283-0.367 0.449-0.5 0.7-0.967 1.101-1.717 1.2-2.25l0.4-5.2 1 5.25c0.1 0.566 0.267 1.35 0.5 2.35 0.166 0.767 0.217 1.217 0.149 1.35-0.666 1.233-1.166 2.1-1.5 2.6l-0.1 0.1v0.1l-4.048 4.85z" fill="#477686"/>
		<path d="m24.9 8.55c0 0.034 0.017 0.067 0.05 0.1l-0.05 0.05c0.028 0.057 0.045 0.148 0.05 0.275-7e-3 -0.096-0.023-0.171-0.05-0.225-0.034-0.133-0.067-0.25-0.1-0.35s-0.083-0.217-0.149-0.35c-1.167-3.633-1.884-5.617-2.15-5.95l-0.45-0.55c-1.6-0.133-2.75 0.034-3.45 0.5-0.066 0.066-0.116 0.099-0.15 0.1-0.034 0-0.067 0.017-0.1 0.05l-0.5-0.7 0.35 0.9 0.4 0.4-4.15 5.75c-1.867 1.967-5.167 6.2-9.9 12.7-0.533 0.533-1.267 1.383-2.2 2.55l-0.6 0.95-0.251 0.25-0.2 0.15-1.2 0.25 4.6-6.5c1.167-1.5 5.45-7.417 12.85-17.75l0.1-0.1 0.6-0.1c0.4-0.1 1.833-0.333 4.3-0.7l0.05 0.05c0.2-0.033 0.4-0.066 0.6-0.1 1.833-0.2 3.116-0.284 3.85-0.25 1.066 0.033 2.033 0.117 2.9 0.25l-0.3 2.7c-0.301-1.3-0.684-2-1.15-2.1-0.333-0.066-1.2-0.1-2.6-0.1-1.334 0-2.284 0.05-2.851 0.15-0.066 0-0.133-0.017-0.2-0.05l0.25 0.55c0.367 0.9 0.683 1.75 0.95 2.55 0.401 1.167 0.684 2.717 0.851 4.65z" fill="#FAFAFA"/>
			<linearGradient id="j" x1="-19.977" x2="-12.481" y1="-21.78" y2="-21.78" gradientTransform="matrix(-.6571 .7538 -.7538 -.6571 -.00066471 -.00019503)" gradientUnits="userSpaceOnUse">
			<stop stop-color="#BCEEFE" offset="0"/>
			<stop stop-color="#69A7BE" offset="1"/>
		</linearGradient>
		<path d="m27.9 8.15l-0.4 0.1-2.6 0.45 0.05-0.05v-0.05l-0.05-0.05c-0.167-1.933-0.45-3.483-0.851-4.65-0.267-0.8-0.583-1.65-0.95-2.55l-0.249-0.55c0.066 0.034 0.133 0.05 0.2 0.05 0.567-0.1 1.517-0.15 2.851-0.15 1.399 0 2.267 0.033 2.6 0.1 0.467 0.1 0.85 0.8 1.15 2.1l0.3-2.7-0.4 5.2c-0.1 0.533-0.5 1.283-1.2 2.25-0.167 0.133-0.318 0.3-0.451 0.5zm-5.35-7.9l0.65-0.05c-0.2 0.033-0.4 0.066-0.6 0.1l-0.05-0.05zm2.15 8.05c-0.033-0.066-0.05-0.15-0.05-0.25 0.067 0.133 0.117 0.25 0.15 0.35l-0.1-0.1z" fill="url(#j)"/>
			<linearGradient id="k" x1="7.9419" x2="13.437" y1="20.368" y2="20.368" gradientTransform="matrix(.6051 -.7962 .7962 .6051 -5.722e-6 -4.1008e-5)" gradientUnits="userSpaceOnUse">
			<stop stop-color="#BCEEFE" offset="0"/>
			<stop stop-color="#69A7BE" offset="1"/>
		</linearGradient>
		<path d="m21.05 4.6l-2.45-2.55c0.7-0.466 1.85-0.633 3.45-0.5l0.45 0.55c0.267 0.333 0.983 2.316 2.15 5.95 0 0.1 0.017 0.184 0.05 0.25l-3.65-3.7z" fill="url(#k)"/>
			<linearGradient id="l" x1="-20.152" x2="9.4434" y1="21.069" y2="21.069" gradientTransform="matrix(.6057 -.7957 .7957 .6057 .00057888 -5.722e-5)" gradientUnits="userSpaceOnUse">
			<stop stop-color="#E5F8FE" offset="0"/>
			<stop stop-color="#B4E3F1" offset="1"/>
		</linearGradient>
		<path d="m19.5 16.4c-0.4 0.3-0.8 0.617-1.2 0.95-2.5 1.967-5.25 3.633-8.25 5-0.2 0.133-0.417 0.233-0.65 0.3-1.2 0.467-2.983 1.033-5.35 1.7l-2.55 0.65 0.25-0.25 0.6-0.95c0.933-1.167 1.667-2.017 2.2-2.55 4.733-6.5 8.034-10.733 9.9-12.7l4.15-5.75 1.2 1c0.4 0.367 0.633 0.833 0.7 1.4 0.1 0.533 0.067 1.05-0.1 1.55-0.167 0.367-0.467 0.85-0.9 1.45-0.667 0.833-1.267 1.566-1.8 2.2l-4.8 6.55c0.967-1.233 2.25-2.733 3.85-4.5l-2.45 3.15c-1.167 1.566-2.083 2.717-2.75 3.45-0.767 0.767-1.433 1.534-2 2.3h1.45c0.167 0.2 0.383 0.183 0.65-0.05 0.1-0.1 0.25-0.3 0.45-0.6 0.267-0.3 0.733-0.617 1.4-0.95 0.033-0.1 0.267-0.35 0.7-0.75 0.3-0.267 0.55-0.483 0.75-0.65 0.333-0.2 0.85-0.45 1.55-0.75 0.2-0.067 0.783-0.434 1.75-1.1 0.167-0.1 0.583-0.367 1.25-0.8 0.533-0.3 0.933-0.567 1.2-0.8 0.333-0.3 0.833-0.883 1.5-1.75l-1.05 1.75c-0.433 0.4-0.983 0.9-1.65 1.5zm5.4-7.65l-1.351 2.2c0.034-0.2 0.1-0.4 0.2-0.6 0.033-0.1 0.183-0.317 0.45-0.65 0.235-0.3 0.367-0.533 0.401-0.7 0.134-0.367 0.051-0.683-0.25-0.95-0.233-0.133-0.417-0.267-0.55-0.4l-2.75-3.05 3.65 3.7 0.1 0.1c0.033 0.1 0.066 0.217 0.1 0.35zm0-0.2l0.05 0.05v0.05c-0.033-0.033-0.05-0.067-0.05-0.1z" fill="url(#l)"/>
			<linearGradient id="m" x1="-20.112" x2="11.824" y1="27.798" y2="27.798" gradientTransform="matrix(.6051 -.7961 .7961 .6051 -.00023174 -.00025415)" gradientUnits="userSpaceOnUse">
			<stop stop-color="#BCEEFE" offset="0"/>
			<stop stop-color="#69A7BE" offset="1"/>
		</linearGradient>
		<path d="m15.1 29.25c-1.067 0.533-2.2 0.934-3.4 1.2-0.833 0.233-1.684 0.35-2.55 0.35l-1.2-0.05c1.033 0.167 2.233 0.184 3.6 0.05-0.466 0.066-0.983 0.117-1.55 0.15l-2.45 0.05 1.75-1.9c1.434-1.6 2.65-3.133 3.65-4.6 0.733-1.133 2.417-3.233 5.05-6.3 0.533-0.667 1.033-1.267 1.5-1.8 0.667-0.6 1.217-1.1 1.65-1.5l1.05-1.75c0.267-0.4 0.583-0.85 0.95-1.35 0.1-0.2 0.233-0.483 0.4-0.85l1.351-2.2c0.026 0.054 0.043 0.129 0.05 0.225-6e-3 -0.127-0.022-0.218-0.051-0.275l2.6-0.45 0.4-0.1c0.1 0.267 0.317 0.85 0.65 1.75 0.101 1.133 0.117 1.883 0.05 2.25-0.066 0.367-0.199 0.667-0.399 0.9-0.367 0.434-0.767 0.9-1.2 1.4-0.733 0.966-2.517 3.216-5.35 6.75-3.133 3.7-4.983 5.866-5.55 6.5-0.533 0.566-1.25 1.149-2.15 1.75l-1.2 0.649c0.466-0.099 1.249-0.382 2.349-0.849zm10.85-12.45c-0.634 0.833-1.2 1.55-1.7 2.15l-1.225 1.425 2.925-3.575z" fill="url(#m)"/>
			<linearGradient id="n" x1="-8.5029" x2="13.736" y1="23.186" y2="23.186" gradientTransform="matrix(.6284 -.7779 .7779 .6284 5.5313e-5 -.00015116)" gradientUnits="userSpaceOnUse">
			<stop stop-color="#A0D6EA" offset="0"/>
			<stop stop-color="#76B9D0" offset="1"/>
		</linearGradient>
		<path d="m23.55 10.95c-0.167 0.367-0.3 0.65-0.4 0.85-0.367 0.5-0.683 0.95-0.95 1.35-0.667 0.867-1.167 1.45-1.5 1.75-0.267 0.233-0.667 0.5-1.2 0.8-0.667 0.433-1.083 0.7-1.25 0.8-0.967 0.667-1.55 1.033-1.75 1.1-0.7 0.3-1.217 0.55-1.55 0.75-0.2 0.167-0.45 0.383-0.75 0.65-0.434 0.4-0.667 0.65-0.7 0.75-0.667 0.333-1.133 0.65-1.4 0.95-0.2 0.3-0.35 0.5-0.45 0.6-0.267 0.233-0.483 0.25-0.65 0.05h-1.45c0.567-0.767 1.233-1.533 2-2.3 0.667-0.733 1.583-1.883 2.75-3.45l2.45-3.15c0.3-0.3 0.583-0.633 0.85-1 2.7-3.034 4.25-4.534 4.65-4.5 0.533 0.033 1.3 0.55 2.3 1.55l-0.75-0.85c0.133 0.133 0.316 0.267 0.55 0.4 0.3 0.267 0.383 0.583 0.25 0.95-0.033 0.167-0.166 0.4-0.399 0.7-0.267 0.333-0.417 0.55-0.45 0.65-0.101 0.2-0.168 0.4-0.201 0.6z" fill="url(#n)"/>
		<path d="m18.45 2.15h0.05l2.55 2.45 2.75 3.05 0.75 0.85c-1-1-1.767-1.517-2.3-1.55-0.4-0.034-1.95 1.466-4.65 4.5-0.267 0.367-0.55 0.7-0.85 1-1.6 1.767-2.883 3.267-3.85 4.5l4.8-6.55c0.533-0.633 1.133-1.367 1.8-2.2 0.433-0.6 0.733-1.083 0.9-1.45 0.167-0.5 0.2-1.017 0.1-1.55-0.067-0.567-0.3-1.034-0.7-1.4l-1.2-1-0.4-0.4-0.35-0.9 0.5 0.7c0.033-0.033 0.067-0.05 0.1-0.05z" fill="#fff"/>
			<linearGradient id="o" x1="-20.471" x2="2.4898" y1="18.325" y2="18.325" gradientTransform="matrix(.6054 -.7959 .7959 .6054 .00019932 .00031233)" gradientUnits="userSpaceOnUse">
			<stop stop-color="#CCF2FD" offset="0"/>
			<stop stop-color="#E1F8FE" offset="1"/>
		</linearGradient>
		<path d="m0.15 25.4h-0.05l1.2-0.25 0.2-0.15 2.55-0.65c2.367-0.667 4.15-1.233 5.35-1.7-0.2 0.233-0.383 0.467-0.55 0.7-0.233 0.333-0.467 0.633-0.7 0.9-0.566 0.566-1.2 1.116-1.9 1.65l-1.35 0.95c-0.633 0.467-0.983 0.733-1.05 0.801-0.2 0.066-0.35 0.083-0.45 0.05-0.066 0-0.217-0.084-0.45-0.25l-2.6-2-0.2-0.051z" fill="url(#o)"/>
			<linearGradient id="p" x1="-28.863" x2="-17.72" y1="13.209" y2="13.209" gradientTransform="matrix(.0561 -.9984 .9984 .0561 .00037044 -6.33e-5)" gradientUnits="userSpaceOnUse">
			<stop stop-color="#CCF2FD" offset="0"/>
			<stop stop-color="#E1F8FE" offset="1"/>
		</linearGradient>
		<path d="m7.55 31c-0.267-0.1-0.566-0.267-0.9-0.5 0.434 0 0.733 0.017 0.9 0.05-1.2-0.767-2.233-1.533-3.1-2.3 0.233-0.333 0.617-0.7 1.15-1.1 0.667-0.5 1.1-0.851 1.3-1.051l1.1-1.199c0.1-0.101 0.3-0.351 0.6-0.75 0.3-0.367 0.417-0.617 0.35-0.75-0.267 0.3-0.534 0.583-0.8 0.85 0.233-0.267 0.467-0.567 0.7-0.9 0.167-0.233 0.35-0.467 0.55-0.7 0.233-0.066 0.45-0.167 0.65-0.3 3-1.367 5.75-3.033 8.25-5 0.4-0.333 0.8-0.65 1.2-0.95-0.467 0.533-0.967 1.133-1.5 1.8-2.633 3.066-4.317 5.167-5.05 6.3-1 1.467-2.217 3-3.65 4.6l-1.75 1.9z" fill="url(#p)"/>
		<path d="m6.65 30.5l-0.1 0.05c-0.4 0.033-0.733-0.017-1-0.149-0.533-0.233-1.133-0.667-1.8-1.301-0.567-0.533-1.217-1.066-1.95-1.6-0.066-0.066-0.367-0.366-0.9-0.9-0.033-0.033-0.05-0.066-0.05-0.1l-0.7-0.75 0.05 0.15-0.1-0.05-0.1-0.1 0.1-0.25 0.05-0.1 0.2 0.05 2.6 2c0.233 0.166 0.383 0.25 0.45 0.25 0.1 0.033 0.25 0.017 0.45-0.05 0.066-0.067 0.417-0.334 1.05-0.801l1.35-0.949c0.7-0.534 1.333-1.084 1.9-1.65 0.267-0.267 0.533-0.55 0.8-0.85 0.066 0.133-0.05 0.383-0.35 0.75-0.3 0.4-0.5 0.65-0.6 0.75l-1.1 1.2c-0.2 0.2-0.633 0.551-1.3 1.051-0.533 0.399-0.917 0.767-1.15 1.1 0.867 0.767 1.9 1.533 3.1 2.3-0.167-0.034-0.467-0.051-0.9-0.051z" fill="#E4FAFF"/>
		<path d="m15.65 29.1l-1 1.101-0.1 0.05c-0.933 0.2-1.8 0.35-2.6 0.45l-0.4 0.1c-1.367 0.134-2.566 0.117-3.6-0.05l1.2 0.05c0.867 0 1.717-0.116 2.55-0.35 1.2-0.267 2.333-0.667 3.4-1.2h0.2c0.067-0.066 0.15-0.134 0.25-0.2l0.1 0.049z" fill="#BDECF8"/>
			<linearGradient id="q" x1="-26.604" x2="-14.293" y1="26.376" y2="26.376" gradientTransform="matrix(.6052 -.7961 .7961 .6052 -.00060368 .00048733)" gradientUnits="userSpaceOnUse">
			<stop stop-color="#BCEEFE" offset="0"/>
			<stop stop-color="#69A7BE" offset="1"/>
		</linearGradient>
		<path d="m14.55 30.25l-1.7 1.7c-0.1 0.1-0.867 0.517-2.3 1.25-1.533 0.767-2.466 1.267-2.8 1.5-0.333 0.267-1.3 0.383-2.9 0.35-1.6-0.066-2.5-0.1-2.7-0.1 0.367-0.2 0.7-0.4 1-0.601l0.85-0.399c1.433-0.9 2.617-1.884 3.55-2.95l2.45-0.05c0.567-0.033 1.083-0.084 1.55-0.15l0.4-0.1c0.8-0.1 1.667-0.25 2.6-0.45z" fill="url(#q)"/>
			<linearGradient id="r" x1="-26.625" x2="-12.585" y1="20.117" y2="20.117" gradientTransform="matrix(.6054 -.7959 .7959 .6054 .00013065 .00027847)" gradientUnits="userSpaceOnUse">
			<stop stop-color="#CCF2FD" offset="0"/>
			<stop stop-color="#E1F8FE" offset="1"/>
		</linearGradient>
		<path d="m0.1 25.85l0.1 0.05v4.4c-0.034-0.066-0.05-0.149-0.05-0.25-0.133-0.666-0.167-1.649-0.1-2.95l0.05-1.25zm0-0.35v-0.1h0.05l-0.05 0.1zm6.55 5c0.333 0.233 0.633 0.4 0.9 0.5-0.933 1.066-2.117 2.05-3.55 2.95l-0.85 0.4-1.1 0.601-1.4-3c0-0.601-0.017-1.283-0.05-2.05 0-1.467 0.1-2.567 0.3-3.301 0.533 0.534 0.833 0.834 0.9 0.9 0.733 0.533 1.383 1.066 1.95 1.6 0.667 0.634 1.267 1.067 1.8 1.301 0.267 0.133 0.6 0.183 1 0.149l0.1-0.05z" fill="url(#r)"/>
		<path d="m2.05 34.95l-2.1-2.4c0.133-0.533 0.216-1 0.25-1.399v-5.251l-0.05-0.15 0.7 0.75c0 0.033 0.017 0.066 0.05 0.1-0.2 0.733-0.3 1.834-0.3 3.301 0.033 0.767 0.05 1.449 0.05 2.05l1.4 2.999z" fill="#F7FDFF"/>
	<g fill="#FAFAFA">
		<path d="m12.966 12.655l0.403 0.295c0.056 0.207 0.175 0.438 0.357 0.696 0.083 0.226-0.035 0.47-0.352 0.734-0.462 0.404-0.899 0.353-1.312-0.156 0.129-0.401 0.431-0.924 0.904-1.569z"/>
		<path d="m15.513 10.619l-0.188 1.102c-0.031 0.267-0.145 0.534-0.341 0.803-0.209 0.343-0.432 0.448-0.667 0.318-0.215-0.158-0.105-0.533 0.328-1.124 0.216-0.297 0.505-0.663 0.868-1.099z"/>
		<path d="m15.72 10.336l0.591-0.806c0.764 0.478 0.881 0.853 0.352 1.125-0.643 0.315-0.957 0.208-0.943-0.319z"/>
		<path d="m16.62 8.517l0.26-0.862 0.333 0.306c-0.202 0.389-0.4 0.574-0.593 0.556z"/>
		<path d="m18.092 8.792l0.011-0.86c0.311-0.144 0.492-0.052 0.542 0.274 0.07 0.299-0.024 0.54-0.282 0.723l-0.271-0.137z"/>
		<path d="m18.291 6.83l0.647-1.137c0.207-0.056 0.366-0.021 0.481 0.104-0.339 0.744-0.714 1.088-1.128 1.033z"/>
		<path d="m19.119 12.208l0.054 1.279c0.057 0.373-0.121 0.841-0.534 1.405-0.434 0.591-0.799 0.695-1.097 0.312 0.395-0.99 0.921-1.989 1.577-2.996z"/>
		<path d="m15.169 16.75l1.115-0.422c0.044 0.446-0.175 0.801-0.658 1.066-0.457 0.285-0.609 0.07-0.457-0.644z"/>
		<path d="m10.583 18.779l1.201-0.793 0.202 0.148c-3e-3 0.287-0.19 0.625-0.559 1.016-0.37 0.39-0.687 0.57-0.954 0.54-0.264-0.317-0.227-0.621 0.11-0.911z"/>
		<path d="m9.581 17.609l1.424-1.435c0.209 0.278 0.074 0.716-0.406 1.314-0.479 0.598-0.887 0.899-1.219 0.902-0.144-0.309-0.077-0.57 0.201-0.781z"/>
		<path d="m5.417 20.753l1.324-0.453c0.151 0.359-6e-3 0.657-0.47 0.895-0.491 0.219-0.776 0.071-0.854-0.442z"/>
		<path d="m3.867 26.249l0.403 0.295c0.332 0.449 0.189 0.841-0.428 1.174-0.51 0.246-0.502-0.244 0.025-1.469z"/>
		<path d="m0.944 30.488l0.502-0.685c0.406 9e-3 0.583 0.304 0.529 0.884-0.061 0.533-0.264 0.839-0.609 0.916-0.326 0.051-0.534-0.061-0.623-0.333-0.097-0.318-0.031-0.579 0.201-0.782z"/>
		<path d="m1.253 33.193l0.82-0.019c-0.091 0.182-0.233 0.347-0.425 0.494-0.268-0.028-0.398-0.188-0.395-0.475z"/>
		<path d="m2.685 33.438l0.906-0.39c-0.336 0.458-0.637 0.588-0.906 0.39z"/>
		<path d="m7.505 33.626l0.58 0.054c0.09 0.272-0.097 0.527-0.562 0.767-0.444 0.21-0.717 0.217-0.819 0.019 0.321-0.552 0.588-0.83 0.801-0.84z"/>
		<path d="m5.396 34.559l1.867-1.109c-0.703 0.847-1.325 1.3-1.865 1.359-0.106-0.079-0.108-0.163-2e-3 -0.25z"/>
		<path d="m10.514 29.016l1.217-1.153c-0.036 0.388-0.265 0.84-0.685 1.356-0.421 0.519-0.806 0.732-1.152 0.643 0.15-0.261 0.356-0.544 0.62-0.846z"/>
		<path d="m13.504 25.444l5.515-6.677c-0.604 0.879-1.573 2.173-2.907 3.88-1.334 1.708-2.326 3.004-2.977 3.891-0.17 0.288-0.314 0.513-0.433 0.675-0.243 0.275-0.456 0.367-0.637 0.275 0.073-0.153 0.553-0.835 1.439-2.044z"/>
		<path d="m20.127 20.384l0.295-0.403c0.042 0.279-0.055 0.497-0.293 0.653l-2e-3 -0.25z"/>
		<path d="m24.277 14.131l1.082-0.631c0.093 0.439-0.219 0.892-0.935 1.359-0.214-0.157-0.263-0.399-0.147-0.728z"/>
		<path d="m26.695 6.608l0.489-0.075c0.114 0.125 0.159 0.261 0.134 0.408-0.072 0.154-0.2 0.245-0.388 0.274l-0.235-0.607z"/>
		<path d="m25.574 5.601l0.067-1.189c0.483 0.354 0.756 0.574 0.816 0.66 0.203 0.231 0.126 0.505-0.23 0.822-0.191 0.149-0.385 0.214-0.577 0.196-0.22-0.037-0.246-0.201-0.076-0.489z"/>
		<path d="m24.258 4.016l-0.196-0.578c0.785 0.452 1.063 0.862 0.833 1.231-0.131 0.234-0.265 0.219-0.4-0.046-0.177-0.211-0.255-0.414-0.237-0.607z"/>
		<path d="m27.159 4.285l0.871-0.849c0.241 0.177 0.38 0.299 0.413 0.365 0.089 0.105 0.066 0.276-0.064 0.51-0.207 0.509-0.614 0.5-1.22-0.026z"/>
	</g>
</g>
</svg>